<?xml version="1.0" standalone="no"?>
<!DOCTYPE svg PUBLIC "-//W3C//DTD SVG 20010904//EN"
 "http://www.w3.org/TR/2001/REC-SVG-20010904/DTD/svg10.dtd">
<svg version="1.0" xmlns="http://www.w3.org/2000/svg"
 width="870.000000pt" height="870.000000pt" viewBox="0 0 870.000000 870.000000"
 preserveAspectRatio="xMidYMid meet">
<metadata>
Created by potrace 1.14, written by Peter Selinger 2001-2017
</metadata>
<g transform="translate(0.000000,870.000000) scale(0.100000,-0.100000)"
fill="#000000" stroke="none">
<path d="M4346 8668 c-9 -12 -16 -32 -16 -44 0 -11 -14 -86 -30 -165 -17 -79
-37 -180 -45 -224 -8 -44 -21 -109 -30 -145 -33 -144 -57 -257 -61 -290 -3
-19 -13 -71 -23 -115 -11 -44 -22 -96 -25 -116 -3 -20 -10 -49 -16 -65 -6 -16
-11 -29 -9 -29 5 0 -15 -112 -22 -121 -5 -6 -1 -26 11 -49 26 -52 26 -57 -13
-88 -37 -30 -45 -63 -16 -70 26 -7 24 -32 -4 -54 -29 -22 -47 -54 -47 -82 0
-32 17 -33 46 -4 25 26 26 27 21 6 -4 -18 -1 -23 15 -23 21 0 21 15 1 67 -6
17 -6 17 10 1 12 -12 27 -15 58 -11 37 5 41 4 36 -10 -4 -11 -1 -17 8 -17 12
0 15 -16 14 -82 -1 -46 -4 -94 -8 -108 -6 -21 -3 -27 21 -37 35 -15 78 -2 78
24 0 9 11 29 25 43 23 24 39 75 62 197 4 22 10 30 20 26 22 -9 61 -101 73
-179 7 -38 16 -88 21 -111 5 -24 6 -62 3 -84 -6 -34 -4 -45 12 -56 18 -13 18
-14 0 -47 -22 -41 -17 -52 28 -60 26 -5 50 -23 95 -73 55 -61 66 -83 40 -83
-5 0 -9 6 -9 14 0 8 -21 32 -46 54 -37 33 -59 44 -122 58 -42 9 -91 23 -107
30 -18 8 -62 12 -105 11 -61 -2 -80 2 -102 18 -22 16 -27 26 -22 47 6 32 -7
42 -32 23 -22 -17 -38 -19 -29 -5 6 9 2 12 -27 14 -15 1 -18 -24 -5 -41 5 -7
4 -20 -2 -32 -10 -17 -7 -22 16 -35 27 -15 26 -17 -7 -20 -11 -1 -15 -13 -15
-43 1 -56 -17 -61 -52 -15 -46 61 -84 95 -95 84 -6 -6 -6 -17 1 -30 6 -11 11
-28 11 -38 0 -14 -2 -14 -16 -3 -13 10 -17 10 -25 -2 -11 -18 -11 -30 0 -47 6
-10 27 -13 75 -10 51 2 65 0 61 -10 -8 -21 26 -27 41 -7 7 10 20 15 28 12 9
-4 22 3 31 16 14 20 14 23 -2 34 -15 12 -14 13 9 13 14 0 41 -6 59 -13 19 -7
59 -13 89 -12 52 1 55 0 72 -34 23 -44 23 -71 1 -110 -14 -25 -15 -33 -5 -39
13 -9 34 -112 23 -112 -3 0 2 -5 11 -10 10 -7 25 -7 42 0 24 9 25 11 24 102 0
52 -6 102 -13 113 -14 25 -4 69 17 73 9 2 32 -6 52 -16 l36 -20 -25 -6 c-14
-4 -30 -4 -35 -1 -6 4 -10 -3 -10 -15 0 -17 5 -19 30 -15 25 4 30 2 30 -15 0
-11 3 -19 8 -19 28 5 92 -3 88 -10 -3 -5 -3 -23 0 -39 6 -28 8 -30 31 -21 31
12 64 3 57 -15 -6 -15 12 -31 44 -39 15 -3 22 -1 22 10 0 23 43 11 55 -14 5
-13 14 -23 18 -23 5 0 17 -10 28 -22 l19 -23 -6 50 c-3 28 -12 75 -19 105 -7
30 -16 75 -20 100 -4 25 -15 79 -25 120 -10 41 -28 122 -40 180 -12 58 -37
179 -55 270 -19 91 -36 178 -39 194 -12 65 -28 143 -37 171 -8 26 -26 117 -49
240 -9 45 -42 197 -65 295 -9 36 -18 79 -20 95 -11 77 -54 264 -66 286 -8 13
-15 25 -15 27 -1 1 -13 -2 -28 -8 -33 -12 -64 8 -43 29 6 6 12 28 12 49 1 23
10 50 22 66 12 15 20 33 18 39 -2 7 -14 65 -26 130 -11 64 -25 117 -30 117 -4
0 -15 -10 -23 -22z m-2 -369 c1 -42 5 -55 19 -57 9 -2 17 -10 17 -17 0 -7 2
-19 5 -27 3 -8 -10 -20 -30 -30 l-36 -18 3 35 c2 27 -3 39 -20 51 -28 19 -28
28 0 54 16 15 22 30 20 53 -3 24 -1 29 8 20 7 -6 13 -35 14 -64z m-127 -1054
l36 -15 -20 -23 c-11 -13 -21 -39 -22 -61 -2 -48 -7 -56 -30 -56 -18 0 -35 33
-23 45 4 3 7 25 8 48 4 90 -1 84 51 62z m348 -865 c3 -5 1 -10 -4 -10 -6 0
-11 5 -11 10 0 6 2 10 4 10 3 0 8 -4 11 -10z m205 -79 c-1 -13 -3 -13 -15 3
-19 26 -19 42 0 26 8 -7 15 -20 15 -29z"/>
<path d="M3980 6937 c0 -17 -4 -47 -10 -66 -20 -71 -21 -108 -4 -125 33 -33
49 -16 49 53 1 49 5 65 18 72 27 16 21 55 -12 78 -38 28 -41 27 -41 -12z"/>
<path d="M4318 6804 c-12 -11 4 -34 24 -34 13 0 18 6 16 17 -3 18 -29 29 -40
17z"/>
<path d="M4067 6755 c-6 -15 -1 -54 7 -63 9 -8 36 20 36 37 0 17 -18 41 -31
41 -4 0 -9 -7 -12 -15z"/>
<path d="M4202 6761 c-10 -6 -10 -10 1 -20 12 -9 16 -8 20 3 7 19 -4 27 -21
17z"/>
<path d="M3950 6669 c0 -14 27 -22 46 -15 21 8 16 13 -19 20 -15 2 -27 0 -27
-5z"/>
<path d="M4222 6384 c-7 -8 -23 -14 -35 -14 -18 0 -23 -6 -23 -24 0 -21 3 -23
27 -16 15 5 31 5 35 2 4 -4 4 3 1 16 -4 17 -2 22 8 18 7 -2 16 1 19 9 7 19
-16 25 -32 9z"/>
<path d="M3854 6305 c-8 -33 1 -56 20 -49 21 8 30 42 16 59 -18 22 -29 18 -36
-10z"/>
<path d="M4243 6272 c-19 -12 -21 -76 -1 -70 6 2 12 21 13 41 0 20 0 37 0 37
0 0 -5 -4 -12 -8z"/>
<path d="M4600 6212 c-32 -5 -76 -47 -59 -57 6 -4 15 -2 19 5 5 8 19 15 31 17
13 2 28 8 32 12 15 15 3 26 -23 23z"/>
<path d="M4267 6189 c-9 -6 -17 -19 -17 -29 0 -17 7 -20 45 -20 42 0 45 1 35
20 -15 28 -42 40 -63 29z"/>
<path d="M3850 6136 c0 -13 6 -23 15 -23 8 0 15 8 15 18 0 9 -7 19 -15 23 -11
4 -15 -1 -15 -18z"/>
<path d="M3940 6131 c0 -5 7 -11 15 -15 8 -3 15 -1 15 3 0 5 -7 11 -15 15 -8
3 -15 1 -15 -3z"/>
<path d="M4864 6088 c-8 -28 -22 -40 -89 -75 -64 -34 -90 -42 -133 -43 -29 0
-67 -7 -84 -16 -22 -11 -33 -13 -41 -5 -14 14 -44 14 -49 0 -8 -24 5 -89 18
-89 7 0 17 -7 22 -16 7 -13 11 -10 22 15 11 27 17 31 52 31 25 0 41 5 44 15 9
22 80 20 93 -2 13 -23 44 -6 49 26 2 12 11 21 21 21 9 0 22 5 29 12 9 9 18 9
37 0 35 -16 35 -16 35 13 0 14 9 30 19 37 23 14 19 61 -7 91 -21 24 -28 22
-38 -15z"/>
<path d="M3970 6080 c-14 -35 -6 -78 17 -87 9 -3 29 -1 44 4 24 9 29 9 29 -3
0 -8 19 -35 41 -59 30 -32 49 -45 69 -45 24 0 29 5 34 35 4 20 11 33 17 30 5
-4 7 -10 4 -15 -3 -4 2 -11 11 -14 22 -9 26 -8 19 5 -4 6 2 13 12 15 21 6 22
23 5 66 -9 22 -17 27 -44 27 -18 -1 -48 6 -67 14 -27 11 -40 12 -59 4 -19 -9
-26 -8 -36 4 -9 14 -67 49 -79 49 -3 0 -10 -13 -17 -30z"/>
<path d="M4260 6075 c-10 -13 -9 -15 9 -15 11 0 21 4 21 9 0 18 -18 21 -30 6z"/>
<path d="M4017 5933 c-25 -6 -16 -25 17 -36 32 -11 50 1 40 26 -6 17 -21 19
-57 10z"/>
<path d="M4293 5885 c5 -11 -4 -14 -44 -12 -34 1 -53 -3 -59 -13 -12 -19 6
-40 36 -40 17 0 22 -5 21 -20 -1 -11 -4 -20 -8 -20 -4 0 -17 -24 -29 -54 -26
-66 -56 -80 -73 -35 -6 16 -14 29 -17 29 -20 -2 -48 -42 -56 -79 -1 -8 -10
-18 -18 -23 -22 -13 -20 -28 4 -28 11 0 20 5 20 10 0 16 58 12 67 -5 13 -23
50 -7 73 32 11 19 20 41 20 49 0 12 4 13 21 4 18 -10 19 -13 6 -28 -16 -18 -7
-62 13 -62 5 0 10 -14 10 -30 0 -18 6 -33 15 -36 22 -9 19 -44 -3 -44 -13 0
-18 7 -18 23 1 16 -5 23 -22 25 -23 3 -23 5 -7 22 10 11 15 26 12 35 -7 17
-38 20 -52 6 -6 -5 -26 -13 -45 -18 -28 -7 -36 -15 -38 -36 -4 -35 -15 -34
-63 4 -28 22 -39 38 -39 58 0 15 -6 35 -13 45 -12 16 -15 16 -40 -9 -14 -15
-29 -36 -33 -47 -11 -37 5 -86 38 -111 31 -24 31 -25 9 -36 -28 -16 -29 -67
-1 -76 11 -3 20 -13 20 -21 0 -8 6 -14 14 -14 7 0 21 -11 29 -24 14 -21 14
-25 2 -30 -8 -3 -15 -12 -15 -21 0 -8 -4 -15 -9 -15 -14 0 -41 41 -41 62 0 14
-6 17 -27 14 -39 -8 -48 -20 -34 -54 9 -20 9 -36 2 -56 -11 -27 -10 -27 23
-21 20 4 36 2 40 -4 4 -6 15 -11 24 -11 13 0 18 -9 20 -31 l2 -30 -43 26 c-44
25 -77 25 -77 0 0 -16 47 -55 66 -55 8 0 14 -4 14 -9 0 -4 -18 -6 -40 -4 -23
3 -40 1 -40 -5 0 -6 -3 -17 -6 -26 -4 -12 0 -16 15 -16 21 0 21 -1 -6 -26 -18
-16 -34 -23 -48 -20 -11 3 -23 6 -27 6 -12 0 -9 108 2 115 14 8 13 65 -1 65
-12 0 -9 34 11 150 7 36 13 91 15 123 2 32 10 69 19 82 18 28 21 45 6 45 -5 0
-7 18 -5 43 6 46 -6 70 -43 81 -16 6 -22 3 -22 -8 0 -9 -9 -16 -20 -16 -16 0
-20 -6 -18 -32 1 -18 1 -59 0 -90 -2 -51 -4 -58 -22 -58 -12 0 -25 10 -32 24
l-11 25 -33 -32 c-65 -63 -127 -112 -178 -142 -96 -56 -275 -196 -285 -223 -5
-15 -10 -21 -10 -14 -1 6 -5 12 -10 12 -12 0 -513 -361 -566 -407 -22 -19 -57
-47 -77 -62 -29 -20 -40 -35 -44 -63 -7 -40 -24 -52 -24 -18 0 27 -13 25 -52
-8 -18 -16 -60 -46 -93 -67 -87 -56 -236 -169 -264 -199 -14 -14 -29 -26 -35
-26 -6 0 -31 -16 -55 -35 -24 -19 -48 -35 -52 -35 -5 0 -9 -245 -9 -545 l0
-545 58 37 c31 21 82 58 113 83 31 25 91 70 133 100 121 86 124 89 104 102
-14 11 -15 14 -1 35 22 33 37 29 29 -8 l-6 -31 38 23 c66 40 122 90 122 110 0
10 5 19 11 19 15 0 7 42 -9 48 -7 2 -12 0 -11 -5 6 -33 -3 -62 -18 -61 -10 1
-28 -2 -40 -6 -14 -4 -23 -3 -23 3 0 5 -3 16 -6 24 -4 10 4 21 23 30 15 9 27
19 26 24 -2 4 5 9 15 9 9 1 23 2 30 3 7 1 11 5 8 10 -4 5 -3 17 0 26 6 15 8
14 25 -1 11 -9 19 -23 19 -31 0 -7 11 -18 24 -25 22 -9 29 -7 56 21 17 17 38
31 46 31 14 0 98 60 393 279 69 52 200 148 291 214 91 66 243 179 339 250 159
118 173 131 169 155 -4 22 3 34 38 66 24 21 44 33 44 26 0 -6 -9 -19 -21 -29
-19 -15 -20 -18 -5 -30 13 -11 20 -11 38 3 123 87 154 111 161 123 4 7 14 13
21 13 7 0 21 9 31 20 10 11 24 20 30 20 7 0 15 6 18 14 3 8 22 22 42 32 20 9
39 23 42 31 8 20 32 16 69 -12 22 -17 45 -25 73 -25 35 0 40 3 43 25 3 25 4
25 26 9 20 -14 21 -17 8 -27 -14 -11 -13 -19 14 -74 16 -36 36 -63 44 -63 8 0
35 -17 59 -37 68 -58 77 -65 152 -118 39 -27 72 -52 75 -55 3 -3 23 -18 46
-33 22 -15 50 -36 62 -47 12 -11 35 -20 51 -20 22 0 32 -6 37 -22 3 -12 12
-27 18 -33 24 -24 234 -179 301 -222 22 -14 58 -41 79 -60 54 -46 72 -44 47 5
-10 21 -21 53 -23 72 -2 30 0 35 19 38 12 2 27 -5 35 -16 10 -15 25 -20 63
-20 28 1 55 4 60 9 6 4 11 -3 11 -18 1 -14 14 -37 29 -53 21 -22 25 -32 17
-47 -6 -11 -7 -25 -2 -33 6 -9 4 -20 -5 -30 -7 -8 -15 -28 -17 -44 -3 -29 22
-53 158 -151 15 -11 46 -34 68 -50 23 -17 109 -80 191 -140 83 -60 158 -117
168 -126 9 -9 30 -22 45 -30 15 -7 45 -29 67 -49 22 -19 87 -69 144 -110 57
-41 124 -90 149 -108 24 -18 50 -31 58 -28 16 6 15 -24 14 833 l0 232 -114 83
c-62 46 -150 110 -195 143 -45 33 -133 97 -194 142 -107 79 -137 95 -137 73 0
-5 -10 -10 -22 -10 -21 1 -22 2 -5 14 9 7 17 17 17 23 0 13 -164 132 -206 149
-33 14 -34 14 -34 -11 0 -14 -5 -25 -10 -25 -6 0 -15 -11 -20 -24 -7 -19 -16
-24 -39 -24 -17 1 -32 7 -35 15 -4 11 6 18 17 11 9 -6 49 28 62 52 15 28 14
29 -17 35 -28 7 -30 9 -15 20 12 9 14 14 5 23 -7 7 -18 12 -25 12 -7 0 -10 7
-7 15 5 11 2 13 -10 9 -21 -8 -20 -20 2 -33 16 -10 15 -10 -3 -11 -24 0 -55
-68 -55 -121 l0 -36 -40 7 c-51 9 -77 33 -90 81 -12 42 -9 69 11 112 11 24 10
33 -7 65 -10 20 -21 50 -24 67 -3 16 -14 34 -25 40 -11 5 -54 36 -96 68 -69
52 -113 69 -132 51 -3 -4 0 -22 8 -41 20 -47 19 -70 -4 -82 -18 -10 -19 -6
-20 45 0 31 -3 65 -7 76 -5 17 -8 18 -22 5 -10 -9 -26 -17 -37 -19 -17 -3 -20
3 -23 42 -2 34 -11 53 -35 78 -37 39 -45 31 -52 -55 -3 -32 -7 -70 -11 -85 -6
-31 -57 -78 -83 -78 -9 0 -22 -5 -29 -12 -9 -9 -12 -2 -12 35 0 53 -10 58 -45
22 -31 -30 -31 -46 -2 -73 24 -23 47 -29 47 -12 0 6 9 6 26 0 40 -16 94 -13
94 5 0 8 4 15 9 15 5 0 11 -7 15 -15 3 -8 15 -15 26 -15 13 0 20 -7 20 -19 0
-20 -23 -45 -33 -35 -10 10 -30 -43 -23 -62 5 -12 14 -15 34 -11 25 5 30 2 41
-29 7 -19 20 -38 30 -44 10 -5 21 -16 24 -25 5 -11 0 -14 -19 -13 -16 2 -32
14 -45 35 -25 41 -42 42 -69 3 -25 -35 -43 -39 -35 -7 7 25 -7 103 -18 100 -4
-1 -24 4 -46 12 -28 10 -42 10 -50 2 -8 -8 -11 1 -11 35 0 51 -9 62 -66 80
-44 15 -62 51 -63 127 -1 39 -3 43 -21 38 -17 -4 -20 -2 -15 15 9 28 -70 104
-91 87 -8 -6 -14 -18 -14 -25 0 -16 -9 -18 -27 -6 -8 5 -11 29 -10 66 1 46 -2
60 -17 71 -21 16 -55 7 -71 -19 -8 -13 -5 -21 15 -36 20 -16 22 -20 8 -20 -24
0 -23 -16 3 -33 20 -15 20 -15 -6 -43 l-25 -29 -35 40 c-32 37 -50 74 -23 47
7 -7 21 -12 31 -12 14 0 17 4 12 18 -4 9 -10 25 -12 35 -6 19 -34 19 -70 -1
-12 -7 -39 -11 -60 -11 l-38 1 45 12 c47 12 62 32 33 43 -10 4 -23 13 -29 21
-8 11 -13 12 -18 4 -10 -16 -59 -16 -54 1 3 6 39 19 81 28 l76 16 3 -26 c3
-22 8 -26 41 -29 32 -3 37 0 37 17 0 11 9 38 21 60 21 41 20 57 -6 116 -7 17
-13 46 -13 66 0 44 -27 89 -53 89 -17 0 -19 -8 -20 -65 -1 -36 -3 -69 -4 -75
-1 -5 -3 -19 -4 -30 -1 -17 -4 -19 -21 -10 -15 8 -26 7 -45 -6 -24 -16 -25
-15 -35 12 -6 16 -17 32 -23 36 -24 15 -15 62 20 101 18 20 33 46 33 57 0 18
-7 20 -55 20 -45 0 -55 -3 -56 -17 0 -14 -2 -15 -6 -3 -4 8 -12 21 -20 28 -9
10 -10 19 -3 33 9 15 7 19 -6 19 -10 0 -14 -5 -11 -15z m67 -89 c0 -2 -7 -6
-15 -10 -8 -3 -15 -1 -15 4 0 6 7 10 15 10 8 0 15 -2 15 -4z m-20 -99 c-4 -40
-5 -40 -8 -9 -2 20 -9 32 -18 32 -21 0 -9 15 13 17 16 1 18 -4 13 -40z m-12
-84 c2 -8 -5 -13 -15 -13 -11 0 -20 7 -20 15 0 18 28 16 35 -2z m86 -57 c22
-34 5 -40 -27 -10 -32 29 -33 34 -8 34 10 0 26 -11 35 -24z m-168 -126 c-1
-45 -3 -49 -28 -52 -15 -3 -33 -1 -40 4 -9 5 -8 8 5 8 27 0 32 29 9 60 -25 33
-23 37 21 32 34 -4 35 -4 33 -52z m-498 -3 c26 -24 27 -34 6 -75 -13 -27 -21
-32 -49 -32 -24 0 -38 -6 -45 -20 -9 -17 -8 -20 12 -20 38 0 66 -11 73 -28 7
-19 -2 -27 -37 -36 -23 -5 -28 -3 -28 12 0 28 -52 73 -70 62 -24 -15 -27 -12
-22 21 4 26 13 35 51 52 53 23 61 32 61 70 0 31 8 29 48 -6z m397 20 c13 -10
15 -16 6 -21 -12 -8 -41 10 -41 25 0 13 13 11 35 -4z m175 -27 c12 -8 11 -10
-7 -10 -13 0 -23 5 -23 10 0 13 11 13 30 0z m8 -80 c-7 -11 -22 -20 -33 -20
-17 0 -17 2 -5 10 8 5 11 10 7 10 -18 0 6 20 24 20 17 0 18 -3 7 -20z m142
-66 c0 -16 -21 -23 -44 -14 -19 6 -19 7 3 29 19 19 25 21 32 10 5 -8 9 -19 9
-25z m320 -39 c10 -12 10 -15 -3 -15 -17 0 -47 -26 -47 -40 0 -5 12 -15 28
-22 32 -16 45 -74 17 -84 -8 -4 -29 -19 -46 -35 -27 -25 -29 -30 -14 -36 10
-3 26 -1 37 6 11 7 22 10 24 8 7 -7 -13 -52 -22 -49 -5 1 -10 -18 -12 -43 -2
-30 -7 -45 -15 -42 -7 2 -10 20 -8 46 1 25 -3 51 -12 65 -8 12 -17 33 -19 47
-2 18 -10 25 -30 27 -20 2 -28 9 -28 22 0 10 4 21 9 25 5 3 15 22 21 43 24 73
89 115 120 77z m-1229 -26 c-9 -22 -10 -22 -10 -3 -1 11 2 24 6 27 12 12 14 0
4 -24z m694 -10 c4 -22 4 -43 1 -46 -9 -9 -14 -1 -19 32 -2 17 -9 31 -15 31
-22 3 -23 4 -17 14 3 6 15 10 25 10 14 0 20 -10 25 -41z m-107 -10 c3 -23 0
-26 -22 -22 -15 3 -26 9 -26 13 0 5 -15 12 -32 16 -33 7 -33 7 -8 15 14 4 39
7 55 6 24 -2 31 -7 33 -28z m344 -44 c13 -17 10 -21 -30 -49 -49 -33 -74 -27
-69 18 2 17 9 32 15 32 7 1 19 2 27 3 8 0 15 8 15 17 0 14 2 15 18 3 9 -8 20
-18 24 -24z m-702 7 c0 -26 -6 -30 -36 -24 -24 4 -24 5 -8 23 22 24 44 24 44
1z m525 -63 c-4 -5 -2 -9 4 -9 6 0 4 -14 -4 -34 -8 -18 -12 -36 -9 -39 3 -3 0
-8 -7 -13 -7 -4 -10 -3 -6 3 4 6 -2 13 -12 16 -14 3 -18 13 -17 43 2 53 12 67
37 54 11 -6 17 -15 14 -21z m-281 -4 c4 -10 -1 -15 -14 -15 -13 0 -18 5 -14
15 4 8 10 15 14 15 4 0 10 -7 14 -15z m-314 -66 c0 -29 -2 -31 -30 -27 -16 3
-30 0 -30 -5 0 -6 -3 -8 -6 -4 -11 11 8 48 29 57 34 14 37 12 37 -21z m830 1
c11 0 24 -9 30 -19 15 -29 13 -34 -11 -28 -16 4 -30 -3 -51 -25 l-29 -31 -20
20 c-13 13 -19 29 -16 44 l4 24 8 -22 c8 -26 46 -31 64 -10 13 17 -5 38 -25
30 -9 -3 -14 2 -14 15 0 24 22 35 33 16 4 -8 17 -14 27 -14z m-140 0 c0 -5 -7
-10 -15 -10 -7 0 -19 -8 -24 -17 -9 -16 -10 -16 -11 4 0 21 11 31 38 32 6 1
12 -3 12 -9z m450 -10 c10 -6 30 -11 44 -12 15 -1 26 -7 27 -13 0 -5 2 -20 5
-32 2 -15 -3 -26 -17 -33 -17 -10 -19 -17 -13 -58 8 -55 6 -52 33 -57 22 -4
28 4 46 59 4 16 8 17 18 6 9 -10 9 -13 0 -17 -15 -6 -17 -59 -3 -68 6 -4 26
-1 46 5 40 14 48 10 40 -18 -5 -14 -13 -18 -26 -15 -11 3 -35 -5 -54 -16 l-35
-22 -21 23 c-17 18 -24 20 -39 11 -24 -15 -31 -8 -31 33 0 18 -6 37 -14 41 -8
4 -14 15 -14 23 4 68 -15 86 -47 44 -13 -18 -14 -16 -15 24 0 31 4 42 13 39
17 -6 47 11 47 28 0 8 -8 19 -17 24 -24 14 2 14 27 1z m378 -37 c4 -26 -5 -28
-30 -9 -25 18 -22 33 5 32 15 -1 23 -8 25 -23z m-1068 -17 c-5 -13 -6 -27 -3
-30 6 -5 -3 -7 -24 -5 -10 1 -4 30 9 47 17 20 28 14 18 -12z m-168 -16 c4 -25
1 -30 -16 -30 -30 0 -44 -12 -47 -40 -2 -14 -10 -26 -16 -26 -7 -1 -23 -2 -35
-3 l-23 -2 24 -20 c13 -11 36 -19 50 -18 14 1 35 1 46 1 18 -2 18 -3 -4 -18
-17 -12 -26 -13 -34 -5 -19 19 -37 12 -37 -13 0 -20 -4 -23 -22 -18 -59 18
-59 21 -22 100 20 40 42 72 50 72 8 0 24 11 36 25 29 33 45 32 50 -5z m388
-20 c0 -5 -4 -10 -9 -10 -6 0 -13 5 -16 10 -3 6 1 10 9 10 9 0 16 -4 16 -10z
m244 -6 c9 -4 16 -17 15 -33 0 -15 -3 -20 -6 -11 -3 8 -12 23 -21 33 -16 18
-13 21 12 11z m-946 -54 c0 -22 -3 -42 -9 -45 -10 -7 -13 68 -2 78 10 11 11 9
11 -33z m465 -25 c-7 -21 -13 -19 -13 6 0 11 4 18 10 14 5 -3 7 -12 3 -20z
m627 10 c0 -8 -4 -15 -10 -15 -5 0 -10 7 -10 15 0 8 5 15 10 15 6 0 10 -7 10
-15z m-88 -99 c14 -8 21 -6 32 9 14 19 15 19 22 2 3 -10 13 -16 20 -13 10 4
14 -3 14 -24 0 -17 5 -30 10 -30 6 0 10 -14 10 -31 0 -24 -4 -30 -17 -27 -10
2 -19 13 -21 25 -4 24 -65 83 -86 83 -13 0 -76 66 -76 80 0 4 10 11 22 17 21
9 24 6 38 -35 8 -25 23 -50 32 -56z m-1718 56 c9 -17 34 -37 65 -52 50 -23 64
-43 39 -53 -7 -3 -4 -6 6 -6 26 -1 56 -30 56 -53 0 -12 -11 -23 -30 -29 -28
-10 -29 -13 -23 -55 3 -26 1 -56 -7 -75 -11 -26 -11 -32 1 -40 10 -6 11 -13 3
-26 -17 -28 -31 -26 -43 7 -9 27 -13 30 -31 20 -17 -9 -26 -5 -55 21 -38 35
-45 62 -17 78 15 9 15 10 -5 11 -18 0 -21 5 -17 26 3 16 0 24 -8 23 -26 -3
-38 1 -38 15 0 7 -10 20 -22 29 -22 14 -22 15 -5 34 15 17 15 22 4 31 -8 7
-16 9 -20 6 -3 -3 -15 0 -27 6 -20 11 -21 10 -11 -9 12 -22 15 -81 4 -81 -5 0
-18 15 -31 34 -22 33 -22 34 -5 67 10 19 18 35 19 37 1 1 32 -4 70 -12 68 -14
90 -13 79 5 -4 5 1 9 10 9 8 0 20 -10 25 -22 11 -29 11 -15 1 40 -10 49 -7 52
13 14z m2214 -20 c6 -18 -15 -14 -22 4 -4 10 -1 14 6 12 6 -2 14 -10 16 -16z
m-1874 -123 c-3 -5 -10 -7 -15 -3 -5 3 -7 10 -3 15 3 5 10 7 15 3 5 -3 7 -10
3 -15z m1766 -19 c0 -5 -4 -10 -9 -10 -5 0 -13 -9 -16 -20 -7 -21 -39 -27 -50
-10 -12 20 15 50 45 50 17 0 30 -4 30 -10z m-1243 -82 c-15 -9 -19 -4 -11 16
5 14 9 15 15 5 5 -8 3 -17 -4 -21z m1256 -34 c3 -4 2 -15 -4 -26 -10 -19 -12
-19 -30 -2 -10 9 -19 21 -19 26 0 9 44 11 53 2z m308 -65 c11 -5 33 -28 49
-50 l29 -40 16 30 c17 35 22 36 48 16 24 -18 18 -49 -10 -53 -48 -7 -54 -52
-7 -52 13 0 24 -4 24 -9 0 -5 3 -16 6 -25 5 -13 -1 -16 -26 -16 -17 0 -38 -7
-47 -15 -22 -23 -33 -15 -54 37 -16 40 -16 48 -4 58 21 18 19 25 -12 39 -22
10 -24 14 -12 21 18 12 3 40 -32 57 -19 10 -20 13 -6 13 10 0 27 -5 38 -11z
m-1996 -9 c-3 -5 -13 -10 -21 -10 -8 0 -14 5 -14 10 0 6 9 10 21 10 11 0 17
-4 14 -10z m-871 -91 c-2 -4 0 -11 6 -14 6 -4 8 -21 4 -40 -4 -21 0 -45 10
-67 9 -18 17 -45 18 -60 3 -41 47 -39 83 5 44 51 95 61 55 10 l-21 -26 32 -30
32 -29 -22 -21 -21 -21 0 26 c0 14 -6 31 -14 37 -12 10 -17 8 -26 -9 -7 -12
-10 -30 -7 -39 4 -15 -1 -17 -29 -14 -43 4 -43 -10 -1 -36 18 -11 42 -31 55
-45 19 -23 27 -25 62 -20 37 6 40 5 40 -16 0 -23 -3 -24 -101 -4 -23 4 -26 2
-26 -21 0 -18 6 -27 23 -31 21 -5 22 -8 8 -21 -8 -9 -28 -17 -43 -19 -22 -3
-31 2 -40 23 l-12 27 -25 -27 c-31 -34 -64 -36 -64 -5 l0 22 -21 -21 -22 -21
23 -32 c12 -17 23 -42 23 -56 0 -26 8 -29 36 -14 15 7 20 4 30 -16 6 -14 7
-23 3 -20 -5 3 -24 8 -42 11 -41 7 -50 12 -50 29 0 9 -9 12 -25 8 -18 -3 -25
-11 -25 -28 0 -27 -9 -34 -33 -25 -17 6 -16 9 7 44 15 21 26 41 26 45 -1 10
-55 68 -75 79 -15 9 -12 13 20 33 23 14 51 23 74 22 56 -2 69 5 63 34 -3 19
-9 23 -21 18 -29 -13 -81 -17 -81 -6 0 6 -9 8 -20 5 -11 -3 -20 0 -20 6 0 6
11 11 25 11 15 0 25 6 25 14 0 8 3 21 6 29 4 11 -5 19 -31 27 -30 10 -34 14
-24 26 9 11 9 18 1 26 -7 7 -12 21 -12 33 0 18 5 20 36 17 30 -4 35 -8 30 -23
-20 -63 -21 -59 15 -56 31 2 33 5 37 42 2 22 10 52 18 67 9 17 14 58 14 110 0
54 3 78 9 68 6 -8 8 -17 5 -21z m-140 -85 c9 -3 16 -16 16 -29 0 -18 -4 -22
-20 -18 -13 3 -20 14 -20 29 0 26 1 27 24 18z m-134 -148 c0 -13 7 -29 15 -36
16 -14 21 -50 6 -50 -5 0 -16 6 -23 14 -17 16 -24 111 -9 101 6 -3 11 -17 11
-29z m3618 -3 c-27 -29 -16 -41 22 -26 25 9 30 9 30 -4 0 -22 -30 -42 -62 -43
-26 0 -27 2 -24 38 3 20 5 42 5 47 1 6 12 10 25 10 l25 0 -21 -22z m-28 -142
c0 -5 -10 -12 -22 -14 -13 -2 0 -5 27 -6 37 -2 45 -5 30 -10 -11 -5 -24 -6
-28 -4 -5 3 -11 -4 -14 -16 -3 -12 -11 -21 -18 -21 -8 0 -11 8 -8 19 3 10 0
22 -6 25 -21 13 -12 36 14 36 14 0 25 -4 25 -9z m370 -29 c2 -2 -1 -6 -7 -10
-17 -11 -4 -53 16 -51 31 3 39 -1 44 -21 3 -12 17 -22 34 -26 16 -3 39 -14 52
-23 21 -16 22 -20 10 -39 -17 -28 -33 -34 -91 -37 -31 -2 -54 -10 -69 -24 -27
-25 -33 -26 -49 -6 -7 8 -18 15 -26 15 -13 0 -26 37 -39 110 -5 30 -3 36 17
45 13 6 25 19 27 30 2 11 7 30 12 42 8 21 11 22 36 11 15 -7 30 -14 33 -16z
m-3404 -123 c0 -12 -11 -28 -23 -37 -22 -14 -23 -13 -23 15 0 34 6 43 30 43
11 0 17 -7 16 -21z m-469 -51 c-3 -8 -6 -5 -6 6 -1 11 2 17 5 13 3 -3 4 -12 1
-19z m-310 -190 c-3 -8 -6 -5 -6 6 -1 11 2 17 5 13 3 -3 4 -12 1 -19z m298 2
c3 -5 -1 -10 -9 -10 -9 0 -16 5 -16 10 0 6 4 10 9 10 6 0 13 -4 16 -10z"/>
<path d="M4410 5106 c0 -9 5 -16 10 -16 6 0 10 4 10 9 0 6 -4 13 -10 16 -5 3
-10 -1 -10 -9z"/>
<path d="M4852 4956 c1 -10 8 -17 13 -17 15 1 12 24 -3 29 -9 3 -13 -2 -10
-12z"/>
<path d="M2490 4081 c0 -5 5 -13 10 -16 6 -3 10 -2 10 4 0 5 -4 13 -10 16 -5
3 -10 2 -10 -4z"/>
<path d="M2552 3997 c-19 -23 13 -57 54 -57 27 0 34 4 34 20 0 11 -6 20 -14
20 -8 0 -16 7 -20 15 -7 19 -40 20 -54 2z"/>
<path d="M4713 5869 c-37 -14 -29 -39 12 -39 28 0 35 4 35 19 0 23 -18 31 -47
20z"/>
<path d="M3910 5861 c0 -5 6 -14 14 -20 10 -9 15 -8 19 3 3 8 3 17 0 20 -9 9
-33 7 -33 -3z"/>
<path d="M3800 5832 c0 -15 38 -44 49 -37 6 3 11 15 11 26 0 14 -7 19 -30 19
-16 0 -30 -4 -30 -8z"/>
<path d="M4130 5825 c-7 -8 -18 -15 -25 -15 -7 0 -15 -12 -18 -27 -3 -16 -8
-37 -12 -49 -5 -15 -2 -21 9 -21 9 0 16 6 16 14 0 7 7 13 15 13 8 0 15 7 15
15 0 10 10 15 30 15 35 0 47 19 30 49 -13 25 -42 27 -60 6z"/>
<path d="M4687 5773 c-4 -3 -7 -22 -7 -42 -1 -20 -7 -47 -15 -61 -21 -37 -18
-47 17 -59 17 -6 32 -10 32 -9 1 2 11 17 23 35 19 27 20 33 8 43 -9 8 -15 30
-15 56 0 36 -3 44 -18 44 -10 0 -22 -3 -25 -7z"/>
<path d="M4417 5743 c-13 -13 -7 -33 11 -33 11 0 18 8 19 20 2 19 -16 27 -30
13z"/>
<path d="M3700 5581 c0 -10 7 -21 15 -25 10 -3 15 1 15 13 0 10 -7 21 -15 25
-10 3 -15 -1 -15 -13z"/>
<path d="M4896 5555 c-20 -14 -48 -25 -61 -25 -21 0 -25 -5 -25 -28 0 -25 6
-31 39 -40 52 -16 58 -15 64 8 3 12 14 20 27 20 19 0 21 4 15 33 -13 57 -18
60 -59 32z"/>
<path d="M4744 5496 c-9 -22 4 -36 33 -36 24 0 25 1 11 22 -19 28 -36 34 -44
14z"/>
<path d="M5030 5450 c0 -13 7 -20 20 -20 23 0 26 10 8 28 -18 18 -28 15 -28
-8z"/>
<path d="M4845 5429 c-9 -28 9 -46 30 -29 20 17 19 27 -4 40 -16 8 -21 6 -26
-11z"/>
<path d="M3910 5392 c0 -4 4 -13 9 -20 6 -10 10 -10 21 3 7 8 11 15 9 16 -31
6 -39 6 -39 1z"/>
<path d="M4943 5386 c5 -16 27 -19 27 -3 0 7 -7 14 -15 14 -9 0 -14 -5 -12
-11z"/>
<path d="M5000 5365 c-16 -19 -11 -24 23 -27 15 -1 29 -8 31 -15 7 -18 43 -16
50 3 17 43 8 54 -43 54 -31 0 -53 -5 -61 -15z"/>
<path d="M5180 5361 c0 -5 5 -13 10 -16 6 -3 10 -2 10 4 0 5 -4 13 -10 16 -5
3 -10 2 -10 -4z"/>
<path d="M4810 5325 c0 -18 5 -25 19 -25 23 0 34 23 18 39 -19 19 -37 12 -37
-14z"/>
<path d="M5040 5231 c0 -25 6 -27 13 -6 4 8 2 17 -3 20 -6 4 -10 -3 -10 -14z"/>
<path d="M4907 5179 c-21 -12 -13 -29 13 -29 24 0 33 15 17 28 -8 7 -18 7 -30
1z"/>
<path d="M5633 4873 c-8 -19 21 -47 41 -40 9 4 16 15 16 26 0 24 -49 36 -57
14z"/>
<path d="M4280 4365 c-162 -114 -170 -121 -162 -161 l5 -26 -27 17 c-25 17
-27 17 -46 0 -11 -10 -20 -14 -20 -9 0 5 -4 4 -8 -1 -4 -6 -25 -23 -47 -40
-22 -16 -44 -35 -48 -42 -4 -7 -22 -20 -40 -29 -32 -17 -278 -191 -287 -204
-3 -4 -24 -20 -46 -36 -77 -53 -178 -127 -351 -257 -173 -129 -199 -158 -152
-170 l21 -6 -21 -34 c-16 -27 -19 -40 -12 -65 11 -35 6 -42 -26 -42 -21 0 -29
14 -24 44 1 4 -6 14 -16 21 -16 12 -17 14 -2 20 17 7 21 55 5 55 -12 0 -96
-54 -96 -62 0 -3 14 -18 31 -32 17 -15 34 -39 38 -54 5 -17 22 -35 46 -49 l39
-22 23 25 c27 29 39 30 53 3 8 -15 8 -29 1 -51 -19 -54 -13 -93 19 -129 28
-32 29 -39 29 -124 0 -110 -5 -122 -48 -107 -26 9 -32 8 -41 -7 -5 -10 -7 -21
-4 -23 8 -8 -24 -30 -35 -24 -13 8 -6 117 8 144 15 28 14 30 -11 35 l-23 4 23
8 c14 5 22 15 22 31 0 12 5 26 11 29 6 4 7 19 4 36 -5 21 -2 31 9 35 9 3 16 9
16 13 0 5 -27 35 -61 69 -60 59 -62 61 -85 45 -13 -8 -24 -19 -24 -24 0 -5
-11 -16 -25 -25 -24 -16 -27 -16 -45 1 -20 18 -28 51 -10 40 16 -10 33 45 19
61 -18 22 -35 17 -62 -18 -24 -29 -27 -31 -55 -19 -28 12 -34 11 -66 -14 -19
-14 -36 -30 -38 -35 -2 -5 -23 -20 -48 -33 -64 -33 -64 -63 -1 -72 70 -9 81
-15 81 -36 0 -18 4 -17 45 12 64 46 74 59 54 72 -14 9 -14 12 -2 27 14 16 17
15 43 -11 36 -37 45 -70 20 -76 -19 -5 -17 -31 3 -44 15 -10 -35 -77 -75 -99
-36 -20 -50 -60 -21 -60 17 0 35 -44 27 -65 -4 -9 -15 -13 -30 -11 -28 5 -38
-7 -41 -51 -1 -17 -9 -42 -17 -55 -8 -13 -14 -41 -13 -62 1 -22 -3 -41 -9 -43
-6 -2 -28 10 -49 27 -41 32 -61 37 -68 18 -2 -7 -8 -10 -12 -6 -14 13 4 38 28
38 39 0 68 40 65 89 -3 37 -6 41 -29 41 -24 0 -27 4 -31 41 -4 46 -4 47 48 55
22 3 45 12 53 19 21 21 6 45 -29 45 -23 0 -30 -4 -30 -20 0 -11 -3 -20 -8 -20
-4 0 -15 9 -25 20 -9 11 -24 20 -32 20 -20 0 -19 39 1 47 10 3 31 1 48 -6 60
-24 62 -24 60 6 -1 15 -3 34 -3 41 -1 11 -14 12 -61 7 -50 -6 -60 -4 -60 8 0
40 -61 29 -77 -13 -6 -17 -23 -34 -40 -41 -48 -18 -67 -31 -213 -134 -179
-126 -223 -163 -215 -183 4 -12 3 -12 -8 -3 -20 16 -35 -4 -37 -49 -1 -19 -2
-259 -1 -533 l1 -497 38 19 c20 11 96 64 167 118 95 72 136 109 153 140 20 37
26 41 42 33 22 -12 44 -2 96 40 17 14 66 50 110 80 43 30 91 67 106 81 15 15
29 25 31 23 2 -2 11 4 21 15 16 17 15 19 -10 35 -18 13 -24 24 -21 38 4 15 -5
27 -39 51 -33 23 -44 38 -45 59 -1 15 -3 33 -4 38 -1 6 -3 14 -4 18 0 5 -12
14 -26 20 -23 11 -25 16 -24 79 l1 68 12 -50 c16 -65 99 -157 131 -144 37 14
54 10 61 -17 5 -21 11 -25 38 -22 35 3 43 30 11 37 -25 4 -35 19 -35 53 l0 27
36 -15 c30 -13 38 -13 45 -2 6 9 9 7 9 -9 0 -19 6 -23 31 -23 24 0 32 -6 40
-29 14 -40 41 -44 72 -12 13 14 54 46 91 71 36 25 68 53 72 63 3 9 14 17 24
17 11 0 29 11 42 24 13 13 95 74 183 136 88 61 170 121 182 133 17 18 525 386
581 422 8 6 56 40 105 78 49 37 94 67 101 67 6 -1 37 -20 69 -43 32 -23 112
-82 178 -130 108 -79 121 -86 126 -68 5 21 37 29 47 13 8 -13 47 -7 57 9 5 8
9 24 9 37 0 16 -6 22 -22 22 -22 1 -22 1 4 21 36 27 40 26 59 -7 14 -26 58
-58 67 -50 9 9 -16 71 -29 71 -14 0 -45 82 -35 93 3 3 23 8 43 11 33 6 38 10
38 34 -1 15 3 27 7 27 11 0 209 -186 227 -214 8 -12 65 -72 128 -135 63 -62
112 -115 110 -118 -9 -9 -35 10 -45 33 -7 13 -17 24 -24 25 -7 0 -21 2 -30 4
-16 3 -17 -4 -11 -56 l6 -59 -34 3 c-25 2 -33 7 -31 19 1 9 -2 19 -8 23 -5 3
-10 42 -10 86 0 92 -6 107 -68 172 -56 57 -72 60 -72 10 0 -23 -8 -45 -21 -59
l-21 -22 -28 31 c-27 31 -27 31 -35 9 -7 -23 -13 -23 -62 -5 -9 4 -13 -8 -13
-40 0 -42 -2 -45 -22 -41 -13 3 -34 8 -47 11 -22 5 -51 -16 -51 -38 0 -3 57
-49 128 -101 143 -107 1438 -1060 1492 -1098 19 -14 37 -28 40 -31 3 -3 41
-31 85 -63 44 -31 100 -72 125 -91 44 -34 90 -59 96 -52 3 3 7 918 5 1037 -1
29 -7 39 -39 59 -20 14 -56 40 -79 58 -23 18 -45 33 -49 33 -4 0 -28 17 -53
38 -25 21 -66 52 -91 67 -25 16 -61 44 -81 62 -42 40 -63 36 -84 -13 -10 -25
-20 -34 -38 -34 -13 0 -32 -7 -43 -15 -10 -8 -29 -15 -41 -15 -30 0 -35 -12
-17 -44 25 -49 20 -57 -28 -40 -36 13 -44 13 -56 0 -22 -22 -7 -46 28 -46 17
0 41 -7 54 -15 20 -13 23 -22 19 -53 -6 -45 -28 -65 -65 -56 -23 5 -28 2 -28
-14 0 -45 80 -66 123 -32 23 18 28 19 33 7 9 -24 0 -72 -13 -72 -7 0 -19 -9
-27 -20 -16 -20 -16 -20 -22 3 -3 12 -13 22 -21 22 -17 0 -43 -58 -43 -96 0
-15 -7 -36 -16 -46 -16 -16 -16 -18 0 -24 9 -3 16 -10 16 -16 0 -5 -5 -6 -12
-2 -8 5 -9 2 -4 -11 7 -18 6 -18 -14 0 -11 10 -20 28 -20 41 0 41 -10 54 -36
48 -21 -5 -42 11 -148 118 -119 121 -148 165 -126 193 10 13 9 45 -2 45 -4 0
-8 -8 -8 -19 0 -16 -4 -17 -35 -7 -43 13 -47 35 -6 30 31 -4 46 8 54 41 5 20
5 20 6 0 2 -29 115 -81 147 -66 21 9 22 8 17 -24 -5 -30 -2 -36 18 -44 32 -12
35 -9 68 58 l29 57 -31 -4 c-18 -3 -37 -9 -43 -13 -7 -6 -16 -4 -23 5 -9 11
-9 19 1 35 7 12 16 21 20 21 5 0 26 16 48 36 39 35 39 36 24 65 -8 17 -27 34
-41 40 -14 5 -24 12 -21 14 2 3 18 -1 36 -7 17 -7 33 -10 35 -8 3 3 7 26 10
53 5 43 4 47 -15 47 -12 0 -34 -11 -48 -25 l-26 -25 -43 45 c-30 32 -50 45
-70 45 -21 0 -31 7 -43 33 -11 23 -13 39 -6 50 7 14 5 17 -12 17 -24 0 -26 20
-4 61 8 17 13 37 10 44 -3 8 2 19 9 25 12 10 3 22 -53 68 -37 30 -105 81 -152
114 -47 32 -112 78 -145 102 -58 43 -82 49 -71 20 3 -8 1 -14 -4 -14 -6 0 -10
15 -10 34 0 21 -6 36 -15 40 -8 3 -67 44 -130 91 -63 47 -132 94 -154 103 -21
10 -50 31 -64 48 -14 16 -53 49 -86 73 l-61 42 -1 -43 -1 -43 -9 50 c-9 55
-11 57 -128 143 -40 29 -83 52 -97 52 -17 0 -24 6 -24 19 0 20 -56 53 -112 66
-23 6 -28 4 -28 -12 0 -10 5 -24 10 -29 7 -7 -3 -18 -30 -33 -22 -12 -40 -18
-40 -12 0 16 22 61 30 61 9 0 46 68 40 72 -3 2 -18 12 -35 24 -28 19 -90 54
-97 54 -2 0 -32 -20 -68 -45z m0 -387 c0 -16 -3 -19 -11 -11 -6 6 -8 16 -5 22
11 17 16 13 16 -11z m550 -103 c0 -8 -7 -15 -16 -15 -14 0 -14 3 -4 15 7 8 14
15 16 15 2 0 4 -7 4 -15z m-414 -27 c4 -13 2 -24 -5 -26 -6 -2 -11 -11 -11
-19 0 -28 -11 -6 -16 31 -3 27 0 36 10 36 8 0 18 -10 22 -22z m638 -139 c7
-45 -10 -115 -30 -123 -11 -4 -14 12 -14 79 0 76 2 85 19 85 14 0 20 -10 25
-41z m-924 7 c0 -16 -11 -32 -30 -46 -33 -24 -34 -23 -19 17 6 15 10 30 9 32
-2 5 23 21 33 21 4 0 7 -11 7 -24z m-218 -11 c-3 -20 0 -25 17 -25 12 0 36 -7
53 -16 17 -9 41 -14 54 -11 13 2 25 -1 28 -9 6 -16 24 -13 59 11 24 15 30 16
38 4 5 -8 9 -17 9 -20 0 -14 -28 -41 -59 -57 -46 -23 -50 -40 -13 -54 17 -7
35 -22 40 -34 7 -14 23 -24 46 -28 43 -8 56 -2 56 27 0 21 0 21 23 -3 56 -62
72 -112 41 -124 -27 -10 -54 3 -54 27 0 42 -14 51 -48 33 -17 -9 -29 -22 -27
-29 3 -7 -15 -20 -47 -33 -50 -21 -53 -21 -65 -4 -7 10 -31 25 -53 34 -26 10
-51 32 -72 60 -17 25 -53 59 -79 76 -27 17 -49 35 -49 39 0 4 -9 17 -20 29
l-21 22 25 0 c29 0 39 27 18 52 -18 22 -9 48 17 48 14 0 19 -5 15 -15 -9 -23
33 -19 53 5 22 25 21 25 15 -5z m898 -221 c0 -14 -4 -22 -10 -19 -5 3 -10 17
-10 31 0 14 4 22 10 19 6 -3 10 -17 10 -31z m236 -61 c-10 -10 -19 5 -10 18 6
11 8 11 12 0 2 -7 1 -15 -2 -18z m-1156 -78 c12 0 15 -15 15 -70 1 -89 -6
-116 -30 -125 -19 -7 -20 -3 -18 94 2 131 2 135 11 116 4 -8 14 -15 22 -15z
m1640 21 c0 -11 -19 -15 -25 -6 -3 5 1 10 9 10 9 0 16 -2 16 -4z m-2432 -33
c-2 -13 4 -18 22 -18 27 0 45 -34 26 -47 -39 -27 -74 7 -62 58 7 27 18 33 14
7z m-398 -218 c0 -34 -14 -47 -32 -32 -28 21 -30 51 -5 62 25 12 37 2 37 -30z
m2854 -78 c3 4 4 -16 2 -43 -3 -27 -5 -55 -5 -61 -2 -23 -36 -14 -47 12 -9 18
-9 36 -2 65 9 33 13 38 28 30 9 -5 20 -6 24 -3z m-2554 -9 c12 -74 11 -82 -4
-90 -9 -5 -16 -18 -16 -29 0 -15 -32 -39 -53 -39 -2 0 -1 141 2 153 1 6 70 11
71 5z m-90 -224 c0 -31 -15 -30 -44 1 -13 14 -26 25 -29 25 -3 0 -9 -16 -13
-35 -8 -42 -29 -41 -29 0 0 23 8 33 40 50 40 22 40 22 58 2 9 -10 17 -30 17
-43z m-518 19 c11 -10 18 -30 18 -52 0 -26 -3 -32 -9 -21 -6 8 -8 17 -5 22 3
4 -9 14 -26 23 -32 17 -41 45 -13 45 9 0 25 -7 35 -17z m419 -120 c62 -33 66
-42 33 -69 -32 -26 -49 -31 -41 -11 9 25 -12 57 -38 57 -14 0 -25 6 -25 13 0
32 24 35 71 10z m-401 -18 c0 -10 -10 -15 -32 -15 l-33 1 25 14 c32 18 40 18
40 0z m105 5 c3 -5 1 -10 -4 -10 -6 0 -11 5 -11 10 0 6 2 10 4 10 3 0 8 -4 11
-10z m3125 -34 c0 -2 -7 -7 -16 -10 -8 -3 -12 -2 -9 4 6 10 25 14 25 6z
m-3230 -76 c0 -23 -4 -30 -20 -30 -25 0 -26 28 -2 46 23 18 22 18 22 -16z
m770 -54 c0 -2 -7 -6 -15 -10 -8 -3 -15 -1 -15 4 0 6 7 10 15 10 8 0 15 -2 15
-4z m3004 -162 c9 -8 16 -25 16 -37 0 -19 -3 -17 -20 11 -28 45 -26 57 4 26z
m136 -105 c0 -19 -11 -19 -59 4 l-24 12 29 6 c38 7 54 1 54 -22z m-4047 -89
c9 -11 17 -36 17 -55 0 -52 -19 -55 -52 -7 -13 19 -14 30 -6 53 12 34 18 36
41 9z m4436 -17 c0 -5 -4 -17 -9 -28 -8 -18 -9 -17 -9 8 -1 15 4 27 9 27 6 0
10 -3 9 -7z m-4409 -225 c0 -5 -4 -8 -10 -8 -5 0 -10 10 -10 23 0 18 2 19 10
7 5 -8 10 -18 10 -22z m4365 1 c-4 -5 -11 -7 -16 -3 -6 3 -9 -19 -8 -58 1 -69
-14 -122 -34 -116 -21 8 -20 49 4 129 21 68 26 76 42 68 10 -6 15 -14 12 -20z"/>
<path d="M2825 3301 c-10 -17 11 -21 31 -6 18 14 18 14 -3 15 -12 0 -24 -4
-28 -9z"/>
<path d="M2770 3020 c6 -11 13 -20 15 -20 3 0 5 9 5 20 0 11 -7 20 -15 20 -13
0 -14 -4 -5 -20z"/>
<path d="M2694 2935 c3 -23 13 -27 36 -15 18 10 20 14 9 21 -22 14 -47 10 -45
-6z"/>
<path d="M4307 2833 c-35 -27 -54 -57 -48 -77 3 -14 -21 -26 -52 -26 -29 0
-197 -109 -298 -192 -26 -21 -52 -38 -58 -38 -6 0 -11 -3 -11 -8 0 -4 -12 -14
-26 -23 l-25 -16 33 -25 c39 -30 148 -160 148 -177 0 -14 -25 -14 -49 1 -25
15 -51 -4 -51 -37 0 -12 -9 -30 -20 -40 -24 -22 -16 -39 15 -31 19 5 22 3 18
-14 -3 -11 0 -20 6 -20 12 0 26 44 18 57 -2 4 -1 17 3 28 6 15 9 8 14 -30 12
-89 15 -95 39 -95 42 0 54 20 56 90 1 25 1 25 27 -7 16 -20 37 -35 59 -39 41
-7 65 -32 74 -76 6 -28 12 -34 48 -41 34 -6 52 -20 98 -73 48 -54 56 -69 52
-92 -9 -45 3 -82 33 -97 l27 -14 -12 35 c-14 41 -9 84 11 84 24 0 31 -24 33
-116 1 -32 6 -43 24 -51 12 -6 76 -51 143 -100 82 -62 131 -92 157 -96 39 -6
49 7 25 31 -9 9 -6 17 12 37 17 19 20 26 9 29 -8 2 -21 7 -29 9 -8 3 0 6 18 6
40 1 40 12 2 44 -16 14 -30 28 -30 30 0 3 15 4 33 2 25 -2 33 -7 35 -26 1 -13
5 -35 8 -49 l6 -25 19 24 c10 13 19 33 19 45 0 12 5 27 11 33 8 8 6 13 -9 17
-26 9 -36 56 -12 56 20 0 36 -16 43 -45 2 -11 5 6 6 37 1 44 6 63 24 84 28 33
52 25 43 -15 -5 -26 12 -151 21 -151 2 0 12 4 21 9 19 10 62 -3 62 -18 0 -5
-9 -13 -20 -16 -22 -7 -26 -35 -10 -65 8 -15 5 -22 -12 -35 -21 -14 -23 -24
-25 -115 l-2 -100 36 0 c35 0 36 1 30 34 -6 35 -2 38 51 51 7 2 20 -12 29 -31
13 -27 23 -34 45 -34 31 0 50 -27 28 -40 -19 -12 -50 0 -67 27 l-17 25 -22
-44 c-13 -23 -23 -49 -24 -55 0 -18 20 -16 40 2 15 14 19 12 43 -15 30 -34 33
-40 14 -40 -19 0 -36 -21 -30 -37 3 -8 41 -41 85 -74 77 -58 81 -59 104 -45
13 9 43 16 68 16 52 0 66 12 31 28 -17 8 -22 16 -18 32 8 30 20 33 43 10 11
-11 24 -20 29 -20 11 0 32 56 24 64 -4 3 6 6 22 6 30 0 68 -35 63 -58 -2 -8
-19 -20 -38 -26 -41 -13 -46 -36 -11 -52 l25 -12 -32 -19 -32 -20 29 -25 c34
-31 51 -21 51 27 0 17 4 35 10 41 5 5 12 27 15 49 9 58 12 65 32 59 41 -13 60
-27 76 -53 19 -32 25 -127 10 -142 -17 -17 -50 -1 -63 31 -7 17 -15 30 -19 30
-19 0 -51 -34 -51 -54 0 -13 -7 -43 -15 -66 -8 -23 -15 -44 -15 -46 0 -2 16
-15 35 -30 l36 -27 24 23 23 22 4 -28 c3 -31 38 -55 68 -47 10 3 25 21 34 41
14 35 15 35 15 10 1 -15 -4 -30 -10 -33 -7 -5 -4 -14 7 -26 22 -25 49 -26 39
-1 -5 9 -10 33 -13 52 -4 31 -3 33 12 21 9 -7 16 -19 16 -26 0 -18 32 -28 42
-13 14 23 9 45 -14 60 -19 13 -20 15 -5 21 9 3 17 2 17 -4 0 -6 7 -4 15 5 8 8
15 19 15 24 0 13 34 42 50 42 9 0 11 -15 6 -63 -4 -49 -2 -68 10 -86 15 -20
15 -23 0 -34 -14 -11 -13 -13 9 -24 24 -11 26 -10 32 18 5 26 23 42 23 21 0
-5 11 -14 25 -20 14 -7 25 -18 24 -24 -4 -33 2 -39 34 -36 30 3 32 6 35 44 2
33 8 43 25 48 34 9 37 8 37 -15 0 -13 4 -18 12 -13 8 5 9 2 3 -12 -4 -10 -9
-43 -11 -73 -3 -68 15 -106 61 -128 27 -13 35 -23 35 -44 0 -41 10 -59 38 -70
33 -13 52 4 52 47 0 44 12 43 33 -1 21 -43 21 -55 3 -55 -7 0 -19 -7 -26 -15
-8 -9 -8 -15 -2 -15 15 0 43 -30 37 -40 -3 -5 -18 -2 -33 6 -42 22 -52 18 -52
-21 0 -40 -20 -55 -48 -34 -13 11 -13 9 2 -9 37 -42 338 -262 360 -262 3 0 6
96 6 214 l0 213 -32 -7 c-48 -10 -80 5 -105 50 -26 45 -29 87 -9 116 8 11 14
34 14 51 -1 41 7 51 37 45 19 -3 25 -10 25 -31 0 -30 22 -66 51 -81 19 -10 19
-5 19 248 l0 258 -172 125 c-94 68 -200 144 -234 169 -35 25 -177 129 -316
231 -139 102 -374 275 -523 384 -148 109 -331 244 -406 299 -75 56 -235 173
-355 260 -121 88 -263 193 -317 233 -54 40 -101 73 -106 73 -4 0 -24 -12 -44
-27z m463 -302 c0 -5 67 -76 148 -158 81 -81 183 -186 226 -233 44 -47 95
-102 114 -122 44 -46 38 -57 -12 -23 -24 16 -45 23 -57 20 -31 -10 -59 4 -56
28 2 18 -3 22 -25 20 -22 -1 -28 4 -33 27 -3 16 -13 34 -21 40 -7 7 -11 17 -8
22 4 7 0 7 -12 0 -34 -18 -104 -25 -104 -11 0 17 30 49 46 49 11 0 28 33 26
50 0 3 5 12 11 20 10 13 10 13 -5 2 -10 -8 -18 -9 -22 -3 -4 5 -29 10 -56 9
-64 0 -73 6 -65 49 6 33 5 34 -15 23 -12 -6 -23 -10 -24 -8 -1 2 -15 19 -29
39 l-27 36 25 17 c14 9 23 22 19 28 -4 7 -9 6 -14 -2 -4 -7 -25 -10 -51 -8
-36 2 -44 7 -44 23 0 13 6 20 18 19 11 -1 17 5 17 20 0 13 3 26 7 29 9 10 23
9 23 -2z m-240 -196 c0 -8 -4 -15 -10 -15 -5 0 -7 7 -4 15 4 8 8 15 10 15 2 0
4 -7 4 -15z m310 -112 c0 -15 -6 -23 -16 -23 -11 0 -14 5 -10 17 4 9 1 20 -6
25 -10 6 -10 10 2 17 17 12 30 -3 30 -36z m-843 -98 c0 -8 -4 -12 -9 -9 -5 3
-6 10 -3 15 9 13 12 11 12 -6z m593 -16 c0 -11 -4 -18 -10 -14 -5 3 -7 12 -3
20 7 21 13 19 13 -6z m-99 -126 c9 -49 -3 -71 -28 -55 -13 10 -24 42 -17 53 6
11 43 12 45 2z m1031 -83 c6 0 8 -12 5 -26 -3 -18 2 -33 15 -46 15 -15 18 -27
13 -61 -4 -23 -9 -44 -11 -46 -8 -9 -44 -11 -44 -3 0 4 -14 22 -30 41 -37 42
-41 94 -8 128 12 13 28 21 36 18 7 -3 18 -5 24 -5z m-664 -80 c-14 -22 -9 -30
21 -33 11 -1 21 -7 21 -15 0 -7 -4 -10 -10 -7 -5 3 -12 -6 -16 -20 -8 -31 -28
-21 -21 11 4 21 1 24 -28 24 -18 0 -38 -7 -45 -15 -24 -29 -58 -7 -44 30 3 8
25 17 52 20 26 3 54 10 62 15 21 13 22 12 8 -10z m-228 -78 c46 12 100 -6 100
-34 0 -10 5 -18 10 -18 6 0 10 -11 10 -24 0 -14 5 -28 10 -31 8 -5 7 -11 -1
-21 -6 -8 -9 -24 -6 -35 5 -19 3 -19 -26 7 -17 16 -38 38 -46 49 -8 11 -34 39
-58 62 -24 23 -43 45 -42 50 0 4 3 3 5 -3 4 -8 16 -9 44 -2z m1850 -508 c0 -8
-4 -12 -10 -9 -5 3 -10 10 -10 16 0 5 5 9 10 9 6 0 10 -7 10 -16z"/>
<path d="M2633 2830 c-26 -11 -30 -35 -8 -44 8 -3 15 -12 15 -21 0 -21 16 -19
40 5 11 11 29 20 40 20 25 0 26 18 3 36 -21 15 -58 17 -90 4z"/>
<path d="M3724 2402 c-33 -21 -125 -88 -206 -149 -81 -61 -163 -120 -182 -133
-20 -12 -36 -25 -36 -28 0 -4 -23 -20 -50 -37 -28 -16 -50 -33 -50 -37 0 -9
49 -23 68 -20 6 2 12 -4 12 -13 0 -8 -7 -15 -15 -15 -11 0 -15 -11 -15 -37 0
-21 -7 -47 -15 -57 -8 -11 -15 -38 -15 -60 0 -31 -3 -37 -12 -28 -22 22 -38
13 -38 -20 0 -24 10 -41 43 -73 l43 -41 -31 -14 c-23 -12 -31 -23 -33 -47 -2
-25 -8 -33 -23 -33 -23 0 -24 9 -2 55 21 43 9 60 -41 57 -23 -2 -36 3 -40 13
-3 9 0 15 8 15 9 0 15 15 18 39 2 22 1 39 -2 39 -3 -1 -12 2 -22 6 -12 6 -14
14 -8 36 10 34 -3 50 -40 50 -47 0 -53 -19 -23 -69 33 -57 38 -138 9 -170 -17
-19 -20 -20 -45 -5 -22 13 -26 22 -23 49 4 32 2 34 -21 29 -15 -2 -32 2 -41
12 -16 16 -46 13 -46 -5 0 -5 -9 -11 -20 -14 -13 -3 -20 0 -20 9 0 8 -3 14 -7
14 -15 -1 -339 -236 -351 -254 -4 -7 -34 -29 -67 -49 -59 -35 -285 -199 -315
-228 -8 -8 -43 -32 -77 -54 l-62 -40 -1 -542 c0 -326 4 -543 9 -543 9 0 100
65 111 79 3 4 33 26 68 49 34 23 115 82 178 130 63 48 133 98 155 112 35 22
39 29 36 58 -3 31 -1 33 20 29 18 -3 23 0 21 12 -2 9 -25 23 -58 34 -30 10
-63 25 -72 34 -17 15 -16 17 10 42 34 33 42 30 37 -13 -4 -28 -2 -34 13 -31 9
2 23 4 30 4 7 1 19 16 28 34 l16 34 45 -49 c25 -26 50 -48 55 -48 11 0 72 42
76 53 2 4 10 7 17 7 7 0 15 4 17 8 2 4 35 30 73 57 73 52 264 195 349 262 27
21 57 42 67 48 20 10 25 40 9 50 -18 11 -11 37 16 62 30 28 27 47 -7 51 -19 2
-28 -4 -37 -23 l-12 -26 -56 56 c-42 42 -53 60 -45 68 6 6 11 20 11 32 0 11 5
27 10 35 8 13 11 13 19 1 7 -11 11 -10 20 7 6 11 11 28 11 37 0 13 2 13 14 3
10 -9 11 -17 2 -30 -8 -14 -4 -24 24 -53 46 -47 61 -46 54 5 -5 35 -3 40 14
40 36 0 55 -35 59 -111 3 -63 1 -73 -17 -86 -11 -8 -20 -20 -20 -27 0 -39 42
-16 247 138 260 194 283 214 283 253 0 39 25 116 38 121 9 3 9 9 2 23 -8 15
-7 19 4 19 8 0 17 8 20 18 2 9 4 -3 4 -28 -1 -68 11 -110 33 -110 10 0 46 21
80 48 33 26 77 58 98 72 20 14 67 47 104 75 60 44 67 53 62 75 -11 41 -25 50
-76 50 -26 0 -51 5 -54 11 -4 6 -14 7 -24 4 -24 -11 -64 -15 -83 -9 -18 5 -14
30 5 37 7 2 4 3 -5 2 -14 -3 -40 23 -62 61 -1 1 -11 4 -22 8 -14 4 -28 1 -38
-10 -10 -9 -18 -15 -19 -13 -1 2 -10 14 -20 26 -17 20 -17 23 -3 52 21 40 20
62 -4 68 -20 5 -24 13 -21 44 1 8 -10 41 -23 72 -14 31 -26 73 -27 94 -1 21
-10 64 -21 97 -18 55 -18 60 -2 77 25 28 14 24 -52 -19z m-424 -511 c5 -11 10
-47 10 -80 0 -58 -1 -61 -19 -49 -16 9 -20 26 -23 80 -3 70 10 90 32 49z m632
-111 c6 -38 -24 -70 -50 -54 -25 16 -26 40 -3 63 29 29 48 26 53 -9z m-392
-235 c0 -8 -4 -17 -10 -20 -6 -4 -10 5 -10 20 0 15 4 24 10 20 6 -3 10 -12 10
-20z m147 -65 c0 -16 -4 -27 -9 -24 -4 3 -8 16 -8 30 0 13 4 24 8 24 5 0 9
-13 9 -30z m-938 -45 c34 -41 41 -57 41 -92 0 -24 -2 -43 -4 -43 -2 0 -11 -2
-18 -5 -9 -4 -40 18 -76 53 -49 45 -59 61 -50 70 7 7 21 12 33 12 14 0 16 3 7
8 -10 7 -10 15 -2 37 12 31 10 32 69 -40z m-666 -340 c30 -28 31 -33 17 -55
-8 -13 -13 -13 -37 0 -20 11 -29 25 -31 48 -4 40 13 42 51 7z m222 -45 c-3 -5
-15 -15 -26 -21 -19 -9 -19 -9 -10 10 6 11 11 30 11 43 l0 22 16 -22 c8 -12
12 -27 9 -32z m249 -48 c-24 -6 -43 16 -24 28 11 7 19 5 28 -8 11 -14 10 -18
-4 -20z m269 -95 c-8 -14 -20 2 -18 25 6 58 8 61 15 23 4 -22 6 -43 3 -48z
m-503 -89 c0 -34 -2 -59 -4 -57 -8 10 -14 119 -5 119 5 0 9 -28 9 -62z m287
-93 c0 -8 -4 -15 -9 -15 -10 0 -11 14 -1 23 9 10 10 9 10 -8z m-200 -77 c-2
-13 -4 -5 -4 17 -1 22 1 32 4 23 2 -10 2 -28 0 -40z m-300 0 c0 -7 3 -29 7
-49 4 -26 2 -40 -8 -48 -12 -10 -16 -7 -22 24 -4 21 -2 47 5 61 12 27 18 30
18 12z m383 -22 c0 -2 -7 -9 -15 -16 -12 -10 -15 -10 -15 4 0 9 7 16 15 16 8
0 15 -2 15 -4z m-396 -172 c32 -12 13 -54 -25 -54 -10 0 -12 43 -2 53 8 8 8 8
27 1z m-87 -241 c-3 -10 -5 -2 -5 17 0 19 2 27 5 18 2 -10 2 -26 0 -35z"/>
<path d="M4120 1941 c16 -32 13 -50 -10 -44 -15 4 -20 0 -20 -15 0 -32 16 -34
49 -6 35 29 38 45 15 68 -23 24 -48 21 -34 -3z"/>
<path d="M6055 559 c-6 -17 0 -29 23 -50 l31 -29 7 23 c7 20 8 38 5 67 0 6
-14 10 -30 10 -22 0 -32 -6 -36 -21z"/>
</g>
</svg>
